<?xml version="1.0" standalone="no"?>
<!DOCTYPE svg PUBLIC "-//W3C//DTD SVG 20010904//EN"
 "http://www.w3.org/TR/2001/REC-SVG-20010904/DTD/svg10.dtd">
<svg version="1.0" xmlns="http://www.w3.org/2000/svg"
 width="1000.000000pt" height="1000.000000pt" viewBox="0 0 1000.000000 1000.000000"
 preserveAspectRatio="xMidYMid meet">
<metadata>
Created by potrace 1.14, written by Peter Selinger 2001-2017
</metadata>
<g transform="translate(0.000000,1000.000000) scale(0.100000,-0.100000)"
fill="#000000" stroke="none">
<path d="M1402 9988 c-164 -20 -401 -95 -542 -171 -436 -235 -723 -620 -832
-1117 l-23 -105 -2 -3555 c-2 -3858 -5 -3634 52 -3847 55 -208 161 -419 294
-588 58 -73 201 -213 280 -273 230 -176 478 -277 791 -321 79 -12 7159 -9
7210 2 19 5 76 18 125 29 582 133 1047 587 1195 1167 20 78 22 90 39 211 12
80 9 7159 -3 7210 -4 19 -12 55 -17 80 -5 25 -12 56 -15 70 -12 56 -74 229
-106 295 -74 154 -185 315 -299 435 -63 66 -190 171 -272 225 -190 123 -369
194 -604 242 -83 17 -282 18 -3643 19 -2123 1 -3585 -2 -3628 -8z m7073 -1073
c221 -47 393 -220 441 -443 20 -96 20 -6854 -1 -6947 -43 -198 -190 -362 -384
-428 l-66 -22 -3440 -2 c-3761 -3 -3494 -7 -3623 54 -75 35 -106 57 -169 121
-65 67 -118 161 -143 254 -18 71 -19 166 -19 3493 0 2367 3 3434 10 3465 6 25
12 54 15 65 2 11 20 53 41 94 72 142 218 256 378 295 92 22 6856 23 6960 1z"/>
<path d="M5687 7990 c-451 -54 -806 -261 -1146 -668 -266 -318 -481 -812 -551
-1267 -25 -160 -34 -270 -34 -430 -1 -691 259 -1155 794 -1421 60 -30 115 -54
123 -54 7 0 17 -4 23 -9 27 -25 336 -108 469 -126 22 -3 51 -7 65 -10 183 -33
760 -40 915 -11 11 2 47 7 80 10 103 12 295 46 403 72 57 13 109 24 116 24 8
0 11 -17 10 -53 -14 -291 -69 -452 -199 -582 -127 -127 -311 -199 -590 -230
-33 -4 -71 -8 -85 -10 -24 -4 -117 -11 -265 -21 -38 -3 -830 -7 -1760 -9
l-1690 -3 -58 -22 c-126 -48 -229 -186 -278 -375 -22 -84 -31 -304 -17 -390
39 -227 151 -401 292 -454 l60 -22 1590 1 c875 1 1620 3 1656 5 139 6 327 17
360 20 153 13 227 21 290 30 55 8 116 17 135 20 453 63 847 233 1090 471 94
92 127 130 190 225 100 149 181 328 238 524 29 97 73 288 81 345 5 35 24 164
32 210 2 14 6 59 10 100 3 41 7 77 9 81 2 3 7 70 12 150 15 276 8 954 -12
1058 -2 14 -5 42 -20 191 -2 19 -6 49 -8 65 -3 17 -8 52 -12 78 -4 27 -8 56
-10 65 -1 10 -8 51 -15 92 -12 69 -43 221 -70 345 -72 317 -247 763 -403 1025
-26 44 -110 173 -117 180 -3 3 -25 32 -50 65 -124 167 -317 349 -492 463 -137
89 -381 194 -503 216 -16 2 -57 9 -90 15 -33 5 -76 13 -95 16 -56 10 -399 14
-473 5z m300 -1224 c79 -7 192 -45 273 -92 165 -97 369 -388 463 -664 29 -85
87 -274 92 -299 2 -10 10 -46 19 -82 25 -103 55 -260 61 -320 l6 -55 -143 -32
c-79 -17 -159 -34 -178 -37 -19 -3 -42 -8 -50 -10 -8 -2 -33 -6 -55 -10 -22
-3 -53 -8 -70 -11 -187 -33 -632 -38 -795 -9 -14 3 -41 7 -60 10 -106 17 -239
60 -302 98 -101 60 -166 161 -189 291 -11 67 -8 277 6 336 3 14 8 41 11 60 12
78 68 250 108 336 97 204 245 367 396 436 80 37 251 70 320 62 14 -2 53 -5 87
-8z"/>
<path d="M2635 7813 c-10 -3 -31 -12 -45 -21 -43 -28 -476 -466 -496 -502 -23
-45 -24 -133 -1 -181 20 -40 452 -477 506 -511 44 -28 141 -30 191 -4 54 28
486 463 510 513 25 54 26 137 2 181 -28 52 -471 491 -517 513 -38 17 -106 23
-150 12z"/>
</g>
</svg>
